<svg width="225" height="47" viewBox="0 0 225 47" fill="none" xmlns="http://www.w3.org/2000/svg">
<path d="M67.6378 9.52264C66.5901 8.47203 65.3438 7.64423 63.9727 7.08836C62.5527 6.51179 61.0349 6.21979 59.5041 6.22871C58.7711 6.22833 58.041 6.32137 57.3312 6.50562C56.6172 6.68813 55.9225 6.94004 55.2568 7.25781C54.583 7.57958 53.9383 7.95987 53.3299 8.39436C52.7281 8.82174 52.1568 9.2913 51.6204 9.79955L49.3246 7.0553H47.9307V38.4861H53.7276V28.2902C54.1622 28.5464 54.6172 28.7944 55.0887 29.0341C55.5602 29.2738 56.0357 29.4887 56.5195 29.683C56.9995 29.8714 57.4929 30.0233 57.9954 30.1376C58.4903 30.2513 58.9964 30.3081 59.5041 30.307C61.0358 30.3164 62.5558 30.036 63.985 29.4804C65.3563 28.9441 66.6038 28.1296 67.6501 27.0875C68.7205 26.004 69.5579 24.7096 70.1099 23.2852C70.7356 21.6788 71.0434 19.9645 71.016 18.2389C71.0388 16.5553 70.7309 14.8838 70.1099 13.3208C69.5495 11.899 68.7085 10.6069 67.6378 9.52264ZM64.7926 20.7642C64.5151 21.4914 64.097 22.1559 63.5627 22.719C63.0406 23.2521 62.4174 23.6737 61.7302 23.9589C61.0259 24.2598 60.269 24.4158 59.5041 24.4176C58.741 24.4227 57.9849 24.2708 57.282 23.9713C56.5979 23.6849 55.9776 23.2634 55.4577 22.7314C54.9234 22.1683 54.5053 21.5038 54.2278 20.7765C53.9125 19.9673 53.7552 19.1042 53.7645 18.2348C53.7505 17.3497 53.905 16.47 54.2196 15.6435C54.4957 14.9179 54.914 14.2559 55.4495 13.6969C55.9669 13.1619 56.5878 12.7399 57.2738 12.457C57.9812 12.1762 58.7357 12.0359 59.4959 12.0437C60.2599 12.037 61.0182 12.1773 61.7302 12.457C62.4191 12.7388 63.043 13.1609 63.5627 13.6969C64.0982 14.2559 64.5165 14.9179 64.7926 15.6435C65.1058 16.4703 65.2589 17.3499 65.2436 18.2348C65.2553 19.0993 65.1022 19.9579 64.7926 20.7642Z" fill="white"/>
<path d="M92.6499 9.48963C91.6074 8.4345 90.3633 7.60355 88.993 7.04708C87.5599 6.46634 86.0279 6.17429 84.4834 6.18744C82.9431 6.17594 81.4173 6.48696 80.0024 7.10081C78.6297 7.691 77.3846 8.54601 76.3373 9.61775C75.2772 10.7145 74.4415 12.0106 73.8775 13.4324C73.2609 14.9565 72.9515 16.589 72.9674 18.2349C72.946 19.8614 73.2471 21.4759 73.8529 22.9836C74.9963 25.8278 77.2059 28.1028 80.0024 29.3152C81.4222 29.926 82.9499 30.2409 84.4936 30.2409C86.0373 30.2409 87.565 29.926 88.9848 29.3152C90.3546 28.7184 91.5965 27.8594 92.6417 26.7858C93.6972 25.6902 94.5325 24.3991 95.1015 22.9836C95.7145 21.4774 96.0225 19.8628 96.0076 18.2349C96.0337 16.5376 95.7257 14.8519 95.1015 13.2754C94.5381 11.8638 93.7052 10.5775 92.6499 9.48963ZM89.7802 20.7642C89.5026 21.4915 89.0846 22.156 88.5503 22.7191C88.0304 23.251 87.41 23.6726 86.7259 23.9589C86.0264 24.2616 85.2732 24.4177 84.5121 24.4177C83.7442 24.4232 82.9845 24.2596 82.2859 23.9383C81.6021 23.6282 80.9862 23.1843 80.4739 22.6323C79.9511 22.0641 79.5406 21.4006 79.2645 20.6774C78.9641 19.899 78.8138 19.07 78.8217 18.2349C78.8096 17.3684 78.9598 16.5075 79.2645 15.6973C79.5376 14.9713 79.9484 14.3059 80.4739 13.7383C80.9852 13.2018 81.6026 12.7794 82.2859 12.4984C83.7131 11.9198 85.3069 11.9198 86.7341 12.4984C87.4206 12.7802 88.0418 13.2024 88.5584 13.7383C89.0902 14.305 89.5078 14.9703 89.7884 15.6973C90.3897 17.3318 90.3897 19.1296 89.7884 20.7642H89.7802Z" fill="white"/>
<path d="M121.409 13.3167C120.849 11.8991 120.013 10.609 118.949 9.52273C117.893 8.47058 116.639 7.64281 115.26 7.08845C113.837 6.51 112.316 6.21796 110.783 6.22881C110.05 6.2282 109.32 6.32124 108.61 6.50571C107.895 6.68754 107.198 6.93947 106.531 7.2579C105.859 7.58152 105.214 7.96172 104.605 8.39445C104.003 8.82081 103.433 9.29043 102.899 9.79964L100.599 7.05539H99.2095V38.4861H105.011V28.2903C105.445 28.5465 105.896 28.7945 106.368 29.0342C106.839 29.2739 107.319 29.4888 107.802 29.6831C108.282 29.8726 108.775 30.0246 109.278 30.1377C109.773 30.2516 110.279 30.3084 110.787 30.3071C112.317 30.3168 113.836 30.0364 115.264 29.4805C116.636 28.9432 117.884 28.1289 118.933 27.0876C120.001 26.0018 120.838 24.7081 121.393 23.2853C122.017 21.6783 122.324 19.9644 122.299 18.239C122.325 16.5553 122.023 14.8828 121.409 13.3167ZM116.08 20.756C115.802 21.4833 115.384 22.1477 114.85 22.7108C114.327 23.2449 113.702 23.6666 113.013 23.9507C112.307 24.249 111.548 24.4008 110.783 24.3971C110.018 24.4021 109.261 24.2502 108.557 23.9507C107.873 23.6644 107.252 23.2428 106.732 22.7108C106.197 22.1489 105.778 21.4841 105.502 20.756C105.192 19.95 105.037 19.0913 105.047 18.2266C105.033 17.3415 105.188 16.4618 105.502 15.6353C105.776 14.9086 106.195 14.2462 106.732 13.6887C107.25 13.1537 107.871 12.7317 108.557 12.4488C109.266 12.1681 110.021 12.0278 110.783 12.0355C111.546 12.0289 112.303 12.1692 113.013 12.4488C113.704 12.7295 114.329 13.1517 114.85 13.6887C115.385 14.2477 115.804 14.9098 116.08 15.6353C116.39 16.4628 116.543 17.3419 116.531 18.2266C116.541 19.0937 116.388 19.9549 116.08 20.7642V20.756Z" fill="white"/>
<path d="M151.681 9.19212C150.894 8.40186 149.965 7.77058 148.943 7.33231C147.884 6.8806 146.746 6.65001 145.597 6.65451C145.068 6.65526 144.54 6.70089 144.019 6.7909C143.486 6.88119 142.966 7.03519 142.469 7.24965C141.963 7.46438 141.485 7.74205 141.047 8.07623C140.587 8.42639 140.182 8.84436 139.845 9.31611C139.165 8.3979 138.249 7.68359 137.197 7.24965C136.214 6.85705 135.167 6.65513 134.11 6.65451C133.077 6.64695 132.052 6.83625 131.088 7.21246C130.124 7.58792 129.229 8.1229 128.44 8.79536L126.882 7.05127H125.509V29.8112H131.248V15.346C131.246 14.9588 131.322 14.5751 131.47 14.2177C131.613 13.8792 131.815 13.5697 132.068 13.3044C132.326 13.037 132.634 12.8235 132.974 12.6762C133.324 12.5262 133.701 12.4503 134.081 12.453C134.465 12.4511 134.846 12.527 135.2 12.6762C135.902 12.9713 136.462 13.5322 136.758 14.2384C136.906 14.5958 136.982 14.9794 136.98 15.3667V29.8319H142.719V15.3667C142.717 14.9794 142.793 14.5958 142.941 14.2384C143.084 13.8919 143.29 13.5752 143.547 13.3044C143.806 13.037 144.113 12.8235 144.453 12.6762C144.803 12.5262 145.18 12.4503 145.56 12.453C145.944 12.4511 146.325 12.527 146.68 12.6762C147.385 12.9696 147.947 13.5307 148.246 14.2384C148.394 14.5958 148.469 14.9794 148.467 15.3667V29.8319H154.207V15.3667C154.213 14.1987 153.984 13.0415 153.534 11.9653C153.099 10.9294 152.47 9.98776 151.681 9.19212Z" fill="white"/>
<path d="M181.056 23.3886V29.8153H186.795V16.809C186.795 16.7677 186.795 16.7264 186.795 16.6851C185.09 18.6771 183.31 20.7518 181.74 22.5745L181.056 23.3886Z" fill="white"/>
<path d="M183.63 8.45232L182.429 7.05127H181.039V11.5148L183.528 8.55565L183.63 8.45232Z" fill="white"/>
<path d="M198.274 9.59697C197.358 8.66492 196.27 7.92103 195.073 7.40653C194.192 7.02813 193.261 6.78302 192.309 6.67914C190.659 6.49864 188.989 6.68052 187.414 7.21228C186.252 7.66556 185.183 8.33263 184.262 9.17955L181.06 12.986C177.141 17.6313 173.217 22.2561 173.037 22.4627C172.683 22.8789 172.268 23.2385 171.807 23.529C171.352 23.8184 170.859 24.0437 170.343 24.1985C169.811 24.3547 169.258 24.4326 168.703 24.43C168.478 24.4313 168.252 24.4203 168.027 24.3969C167.799 24.3753 167.573 24.3295 167.355 24.2605L178.166 11.1385C177.634 10.3761 177.011 9.68215 176.312 9.07209C174.927 7.8494 173.271 6.97924 171.483 6.53449C170.581 6.30748 169.654 6.19365 168.724 6.19559C167.188 6.18499 165.665 6.47992 164.243 7.0635C162.852 7.6318 161.59 8.47859 160.533 9.55267C159.476 10.6267 158.646 11.9058 158.093 13.3125C157.475 14.8806 157.167 16.5556 157.187 18.243C157.169 19.8981 157.477 21.5404 158.093 23.0744C158.666 24.4907 159.508 25.7799 160.574 26.8684C161.64 27.9495 162.91 28.8054 164.309 29.3859C165.708 29.9664 167.207 30.2598 168.72 30.2491C169.647 30.25 170.57 30.139 171.471 29.9185C172.356 29.7014 173.213 29.3767 174.021 28.9514C174.83 28.5256 175.587 28.0054 176.276 27.4015C176.513 27.1949 178.51 24.9218 181.052 21.9626C183.061 19.6317 185.414 16.8916 187.517 14.4283L188.23 13.6018C188.592 13.2692 189.008 13.0021 189.46 12.8124C190.001 12.5831 190.583 12.4665 191.17 12.4693C191.742 12.4665 192.309 12.5833 192.834 12.8124C193.87 13.2577 194.694 14.0923 195.13 15.1392C195.357 15.6718 195.473 16.2458 195.47 16.8254V29.8317H201.21V16.8089C201.219 15.447 200.949 14.0978 200.419 12.8454C199.915 11.6352 199.187 10.5327 198.274 9.59697ZM163.636 21.2642C163.516 21.0499 163.423 20.8206 163.362 20.5822C163.292 20.3301 163.23 20.0615 163.181 19.7887C163.132 19.5159 163.099 19.239 163.075 18.9621C163.05 18.6852 163.046 18.4497 163.046 18.2389C163.033 17.3643 163.183 16.4951 163.489 15.6765C163.761 14.955 164.172 14.2949 164.698 13.734C165.211 13.1973 165.83 12.7749 166.514 12.4941C167.219 12.2022 167.974 12.0547 168.736 12.0602C169.01 12.0588 169.284 12.0726 169.556 12.1015C169.827 12.1328 170.092 12.1966 170.347 12.2916L163.636 21.2642Z" fill="white"/>
<path d="M219.269 7.05566V19.6362C219.27 20.2448 219.156 20.848 218.932 21.4134C218.714 21.9758 218.4 22.4959 218.006 22.9508C217.618 23.4006 217.149 23.7723 216.624 24.046C216.107 24.32 215.532 24.4619 214.948 24.4593C214.365 24.4721 213.786 24.3696 213.242 24.1576C212.72 23.9499 212.249 23.6313 211.861 23.2236C211.451 22.7767 211.136 22.2509 210.934 21.6779C210.689 21.0175 210.571 20.3163 210.586 19.6114V7.05566H204.846V19.6362C204.824 21.1436 205.091 22.641 205.633 24.046C206.111 25.2793 206.836 26.4 207.763 27.338C208.69 28.2759 209.799 29.0111 211.02 29.4974C212.267 29.998 213.598 30.2506 214.939 30.2413C215.569 30.2412 216.196 30.1592 216.805 29.9974C217.418 29.8326 218.015 29.6113 218.588 29.3362C219.162 29.0601 219.711 28.7338 220.228 28.3608C220.746 27.9905 221.242 27.5889 221.712 27.1581L223.61 29.8156H225V7.05566H219.269Z" fill="white"/>
<path d="M30.3965 18.1729H8.93062C8.75134 18.1729 8.57382 18.2085 8.40819 18.2776C8.24255 18.3468 8.09206 18.4482 7.96529 18.5759C7.83852 18.7037 7.73796 18.8555 7.66935 19.0224C7.60074 19.1894 7.56543 19.3684 7.56543 19.5491C7.56543 19.7298 7.60074 19.9088 7.66935 20.0758C7.73796 20.2428 7.83852 20.3945 7.96529 20.5223C8.09206 20.6501 8.24255 20.7514 8.40819 20.8206C8.57382 20.8898 8.75134 20.9254 8.93062 20.9254H30.3965C30.5758 20.9254 30.7533 20.8898 30.919 20.8206C31.0846 20.7514 31.2351 20.6501 31.3619 20.5223C31.4886 20.3945 31.5892 20.2428 31.6578 20.0758C31.7264 19.9088 31.7617 19.7298 31.7617 19.5491C31.7617 19.3684 31.7264 19.1894 31.6578 19.0224C31.5892 18.8555 31.4886 18.7037 31.3619 18.5759C31.2351 18.4482 31.0846 18.3468 30.919 18.2776C30.7533 18.2085 30.5758 18.1729 30.3965 18.1729Z" fill="white"/>
<path d="M8.93062 14.2384H30.3965C30.7586 14.2384 31.1058 14.0934 31.3619 13.8353C31.6179 13.5772 31.7617 13.2271 31.7617 12.8621C31.7617 12.4971 31.6179 12.147 31.3619 11.8889C31.1058 11.6308 30.7586 11.4858 30.3965 11.4858H8.93062C8.56855 11.4858 8.22131 11.6308 7.96529 11.8889C7.70926 12.147 7.56543 12.4971 7.56543 12.8621C7.56543 13.2271 7.70926 13.5772 7.96529 13.8353C8.22131 14.0934 8.56855 14.2384 8.93062 14.2384Z" fill="white"/>
<path d="M30.3965 24.8643H8.93062C8.75134 24.8643 8.57382 24.8999 8.40819 24.969C8.24255 25.0382 8.09206 25.1396 7.96529 25.2674C7.83852 25.3952 7.73796 25.5469 7.66935 25.7138C7.60074 25.8808 7.56543 26.0598 7.56543 26.2405C7.56543 26.4212 7.60074 26.6002 7.66935 26.7672C7.73796 26.9342 7.83852 27.0859 7.96529 27.2137C8.09206 27.3415 8.24255 27.4428 8.40819 27.512C8.57382 27.5812 8.75134 27.6168 8.93062 27.6168H30.3965C30.5758 27.6168 30.7533 27.5812 30.919 27.512C31.0846 27.4428 31.2351 27.3415 31.3619 27.2137C31.4886 27.0859 31.5892 26.9342 31.6578 26.7672C31.7264 26.6002 31.7617 26.4212 31.7617 26.2405C31.7617 26.0598 31.7264 25.8808 31.6578 25.7138C31.5892 25.5469 31.4886 25.3952 31.3619 25.2674C31.2351 25.1396 31.0846 25.0382 30.919 24.969C30.7533 24.8999 30.5758 24.8643 30.3965 24.8643Z" fill="white"/>
<path d="M38.8295 20.5866C37.9071 20.5866 37.079 21.3222 36.3328 22.3637C35.5146 23.5802 34.8274 24.8811 34.283 26.2445C33.839 27.138 33.5611 28.1059 33.4631 29.1004C33.4235 29.8052 33.631 30.5015 34.0493 31.0676C33.2083 32.1665 32.2454 33.1648 31.1795 34.0433C31.0115 34.1797 30.6179 34.5021 29.9947 34.936C29.1725 35.4995 28.3059 35.9944 27.4037 36.4156C26.109 37.0188 24.746 37.4602 23.3451 37.7299C23.0253 37.7905 22.6973 37.8442 22.3611 37.8911C21.3816 38.0226 20.3931 38.0751 19.4053 38.0481L17.6875 40.0319L16.6011 41.2718V37.7216C15.8828 37.5836 15.1736 37.4014 14.4775 37.1761C13.6555 36.9104 12.8539 36.5844 12.0791 36.2007C8.81221 34.5872 6.11396 32.0035 4.34753 28.7974C2.5811 25.5913 1.83126 21.9167 2.19892 18.268C2.44744 15.7482 3.22591 13.3107 4.48244 11.1181C5.66475 9.04551 7.24437 7.23083 9.12928 5.77979C11.0142 4.32876 13.1667 3.27037 15.4614 2.6663C16.4971 2.39639 17.5551 2.22209 18.6222 2.14555C19.147 2.10422 19.6513 2.09182 20.1678 2.09596C20.6844 2.10009 21.164 2.12902 21.6437 2.17862C24.8739 2.4877 27.9581 3.6842 30.5605 5.63786C31.3706 6.2406 32.1265 6.91411 32.8194 7.65059C33.3524 8.20853 33.6763 8.61769 33.8197 8.7954C34.2627 9.35816 34.6733 9.946 35.0496 10.556C34.6472 11.1258 34.3921 11.7877 34.3076 12.482C34.215 13.1797 34.2953 13.8896 34.5413 14.5484C35.1951 16.3161 35.5298 18.1875 35.5293 20.0741H36.505C36.5087 18.0823 36.1588 16.106 35.4719 14.2384C35.2422 13.6275 35.212 12.9585 35.3858 12.329C35.4598 12.024 35.5932 11.7368 35.7783 11.4842C35.9634 11.2316 36.1965 11.0186 36.464 10.8577C36.7476 10.704 37.0645 10.6235 37.3865 10.6235C37.7084 10.6235 38.0253 10.704 38.3089 10.8577C39.0116 11.2214 39.553 11.838 39.8258 12.5853C40.7148 14.9875 41.1702 17.5308 41.1705 20.0948H42.1462C42.1498 17.4133 41.6735 14.7532 40.74 12.2422C40.4088 11.3255 39.8027 10.5353 39.0058 9.98155C38.3699 9.52236 37.5832 9.32705 36.8084 9.436C36.3894 8.76149 35.9308 8.11284 35.435 7.49354C33.5871 5.17758 31.2522 3.30412 28.5988 2.00838C25.9454 0.712635 23.0397 0.026937 20.0915 0.00077775C17.1433 -0.0253815 14.2261 0.608651 11.5505 1.85711C8.87494 3.10557 6.50766 4.93731 4.61959 7.22011C2.73152 9.50291 1.36975 12.1798 0.632581 15.0576C-0.104587 17.9354 -0.198766 20.9423 0.356843 23.8613C0.912452 26.7803 2.10399 29.5384 3.84544 31.9368C5.5869 34.3351 7.83483 36.3138 10.427 37.7299C11.7073 38.4319 13.0619 38.9864 14.4652 39.383V47L20.3851 40.1476C20.8443 40.1476 21.3034 40.1146 21.7626 40.0691C26.5949 39.6214 31.0985 37.4094 34.4265 33.8491C34.8693 33.3738 35.2915 32.8779 35.6851 32.3654C36.0477 32.506 36.4386 32.5565 36.8246 32.5126C37.2107 32.4688 37.5806 32.3318 37.903 32.1133C38.723 31.6132 39.6413 30.6048 40.3833 28.8689C40.8193 27.8591 41.096 26.7867 41.2033 25.6907C41.2905 24.7878 41.2239 23.8764 41.0065 22.9961C40.5842 21.4669 39.7397 20.6031 38.8295 20.5866Z" fill="white"/>
<path d="M40.1126 20.0863C40.1176 17.7541 39.7223 15.4385 38.9442 13.2422L38.0259 13.5728C38.7626 15.6641 39.1384 17.8671 39.1369 20.0863H40.1126Z" fill="white"/>
<path d="M36.333 14.1807C37.0015 16.0768 37.3426 18.0744 37.3415 20.0867H38.3214C38.322 17.9613 37.96 15.8517 37.2513 13.8501L36.333 14.1807Z" fill="white"/>
</svg>
