<svg width="216" height="106" viewBox="0 0 216 106" fill="none" xmlns="http://www.w3.org/2000/svg">
<path d="M24.04 71.7006C22.7619 70.4682 21.2416 69.4971 19.5691 68.8451C17.8369 68.1687 15.9853 67.8262 14.1179 67.8367C13.2238 67.8362 12.3333 67.9453 11.4674 68.1615C10.5964 68.3756 9.74895 68.6711 8.93686 69.0438C8.11495 69.4213 7.32848 69.8674 6.58637 70.3771C5.8522 70.8784 5.15533 71.4292 4.50094 72.0254L1.70035 68.8063H0V105.676H7.07147V93.7158C7.60158 94.0164 8.1567 94.3073 8.73182 94.5885C9.30694 94.8697 9.88706 95.1218 10.4772 95.3496C11.0628 95.5706 11.6646 95.7489 12.2776 95.8829C12.8813 96.0163 13.4987 96.083 14.1179 96.0817C15.9865 96.0926 17.8406 95.7638 19.5841 95.1121C21.2569 94.4829 22.7786 93.5275 24.055 92.305C25.3608 91.034 26.3823 89.5156 27.0556 87.8448C27.8189 85.9604 28.1944 83.9494 28.1609 81.9252C28.1888 79.9503 27.8131 77.9895 27.0556 76.156C26.372 74.4882 25.3461 72.9724 24.04 71.7006ZM20.5693 84.8874C20.2307 85.7406 19.7207 86.52 19.069 87.1806C18.432 87.8059 17.6718 88.3005 16.8335 88.635C15.9744 88.988 15.0511 89.171 14.1179 89.1732C13.1871 89.1791 12.2648 89.0009 11.4074 88.6496C10.5728 88.3137 9.81611 87.8191 9.18191 87.1951C8.53014 86.5346 8.02017 85.7551 7.6816 84.902C7.29699 83.9527 7.10511 82.9403 7.11648 81.9204C7.09944 80.8821 7.28788 79.8502 7.6716 78.8806C8.00845 78.0295 8.5187 77.2529 9.17191 76.5972C9.80308 75.9696 10.5606 75.4746 11.3974 75.1428C12.2602 74.8134 13.1806 74.6487 14.1079 74.6579C15.04 74.6501 15.965 74.8147 16.8335 75.1428C17.6739 75.4733 18.435 75.9684 19.069 76.5972C19.7222 77.2529 20.2324 78.0295 20.5693 78.8806C20.9513 79.8505 21.138 80.8824 21.1194 81.9204C21.1336 82.9344 20.9469 83.9417 20.5693 84.8874Z" fill="white"/>
<path d="M54.5513 71.6617C53.2796 70.424 51.762 69.4493 50.0904 68.7965C48.3422 68.1153 46.4733 67.7727 44.5893 67.7881C42.7104 67.7746 40.849 68.1394 39.1231 68.8595C37.4486 69.5518 35.9298 70.5548 34.6522 71.812C33.3591 73.0985 32.3395 74.619 31.6516 76.2868C30.8994 78.0746 30.522 79.9897 30.5413 81.9203C30.5153 83.8283 30.8825 85.7222 31.6216 87.4908C33.0163 90.8271 35.7117 93.4959 39.1231 94.9181C40.8551 95.6346 42.7187 96.004 44.6018 96.004C46.4848 96.004 48.3485 95.6346 50.0804 94.9181C51.7513 94.218 53.2663 93.2104 54.5413 91.951C55.8289 90.6658 56.8478 89.1512 57.542 87.4908C58.2897 85.7239 58.6655 83.83 58.6472 81.9203C58.6791 79.9293 58.3034 77.9519 57.542 76.1026C56.8547 74.4467 55.8386 72.9379 54.5513 71.6617ZM51.0506 84.8873C50.712 85.7405 50.2021 86.5199 49.5503 87.1805C48.9161 87.8045 48.1594 88.299 47.3248 88.6349C46.4716 88.99 45.5528 89.1731 44.6243 89.1731C43.6876 89.1795 42.7609 88.9876 41.9087 88.6107C41.0745 88.247 40.3231 87.7262 39.6982 87.0787C39.0605 86.4122 38.5598 85.6339 38.2229 84.7855C37.8565 83.8725 37.6732 82.9 37.6828 81.9203C37.668 80.904 37.8513 79.894 38.2229 78.9436C38.5562 78.092 39.0573 77.3115 39.6982 76.6456C40.322 76.0162 41.0751 75.5207 41.9087 75.1911C43.6497 74.5124 45.5939 74.5124 47.3348 75.1911C48.1723 75.5218 48.9301 76.017 49.5603 76.6456C50.2089 77.3104 50.7184 78.0908 51.0606 78.9436C51.7941 80.861 51.7941 82.9699 51.0606 84.8873H51.0506Z" fill="white"/>
<path d="M165.535 70.4448L164.069 68.8013H162.374V74.0372L165.41 70.566L165.535 70.4448Z" fill="white"/>
<path d="M89.6339 76.1513C88.9505 74.4883 87.9302 72.975 86.6332 71.7007C85.3451 70.4665 83.8146 69.4955 82.1323 68.8452C80.3973 68.1666 78.542 67.824 76.6712 67.8368C75.777 67.8361 74.8864 67.9452 74.0206 68.1616C73.1478 68.3749 72.2986 68.6704 71.4851 69.0439C70.6643 69.4236 69.8781 69.8696 69.1346 70.3772C68.4011 70.8773 67.7058 71.4282 67.0542 72.0255L64.2486 68.8064H62.5532V105.676H69.6297V93.7159C70.1598 94.0165 70.7099 94.3074 71.285 94.5886C71.8602 94.8698 72.4453 95.1219 73.0354 95.3498C73.6205 95.5721 74.2224 95.7504 74.8358 95.883C75.4395 96.0166 76.0569 96.0833 76.6762 96.0818C78.5431 96.0932 80.3957 95.7643 82.1373 95.1122C83.811 94.4819 85.3341 93.5267 86.6132 92.3051C87.9157 91.0315 88.9367 89.5139 89.6139 87.8449C90.3747 85.9598 90.7501 83.9493 90.7191 81.9254C90.7515 79.9503 90.3828 77.9883 89.6339 76.1513ZM83.1325 84.8779C82.7939 85.731 82.284 86.5104 81.6322 87.171C80.9943 87.7974 80.2322 88.2922 79.3917 88.6254C78.5304 88.9754 77.6051 89.1534 76.6712 89.149C75.7387 89.1549 74.8148 88.9768 73.9556 88.6254C73.121 88.2895 72.3643 87.795 71.7301 87.171C71.0766 86.5118 70.5663 85.732 70.2298 84.8779C69.8505 83.9324 69.6621 82.9252 69.6747 81.9108C69.6577 80.8725 69.8461 79.8406 70.2298 78.8711C70.5639 78.0186 71.0745 77.2415 71.7301 76.5876C72.3613 75.9601 73.1188 75.465 73.9556 75.1332C74.8202 74.8039 75.7422 74.6392 76.6712 74.6484C77.6016 74.6406 78.525 74.8051 79.3917 75.1332C80.2344 75.4624 80.9973 75.9576 81.6322 76.5876C82.2854 77.2434 82.7957 78.02 83.1325 78.8711C83.5117 79.8417 83.6983 80.873 83.6826 81.9108C83.6957 82.9279 83.509 83.9381 83.1325 84.8875V84.8779Z" fill="white"/>
<path d="M126.561 71.3124C125.601 70.3854 124.468 69.6449 123.221 69.1308C121.93 68.6009 120.542 68.3304 119.14 68.3357C118.495 68.3366 117.85 68.3901 117.214 68.4957C116.565 68.6016 115.93 68.7823 115.324 69.0338C114.706 69.2857 114.123 69.6114 113.589 70.0035C113.028 70.4142 112.534 70.9045 112.123 71.4579C111.293 70.3808 110.176 69.5429 108.893 69.0338C107.694 68.5733 106.416 68.3364 105.127 68.3357C103.867 68.3268 102.616 68.5489 101.441 68.9902C100.265 69.4306 99.1734 70.0582 98.2105 70.847L96.3101 68.8011H94.6348V95.4996H101.636V78.5313C101.634 78.077 101.726 77.6269 101.906 77.2077C102.081 76.8106 102.328 76.4476 102.636 76.1363C102.951 75.8227 103.327 75.5722 103.742 75.3994C104.169 75.2235 104.628 75.1344 105.092 75.1376C105.561 75.1354 106.025 75.2244 106.457 75.3994C107.314 75.7457 107.996 76.4036 108.358 77.232C108.538 77.6512 108.63 78.1013 108.628 78.5555V95.5239H115.629V78.5555C115.627 78.1013 115.719 77.6512 115.899 77.232C116.074 76.8255 116.325 76.454 116.639 76.1363C116.954 75.8227 117.33 75.5722 117.745 75.3994C118.171 75.2235 118.631 75.1344 119.095 75.1376C119.563 75.1354 120.028 75.2244 120.46 75.3994C121.32 75.7436 122.006 76.4018 122.371 77.232C122.551 77.6512 122.643 78.1013 122.641 78.5555V95.5239H129.642V78.5555C129.65 77.1854 129.371 75.828 128.822 74.5655C128.291 73.3503 127.524 72.2458 126.561 71.3124Z" fill="white"/>
<path d="M162.394 87.9657V95.5045H169.395V80.2475C169.395 80.199 169.395 80.1505 169.395 80.1021C167.315 82.4388 165.145 84.8726 163.229 87.0106L162.394 87.9657Z" fill="white"/>
<path d="M183.398 71.7877C182.28 70.6943 180.954 69.8217 179.493 69.2182C178.419 68.7743 177.283 68.4868 176.122 68.3649C174.108 68.1532 172.071 68.3665 170.151 68.9903C168.732 69.522 167.428 70.3045 166.305 71.298L162.399 75.7631C157.618 81.2124 152.832 86.6374 152.612 86.8798C152.18 87.368 151.674 87.7898 151.112 88.1306C150.556 88.4701 149.956 88.7343 149.326 88.916C148.676 89.0992 148.003 89.1906 147.326 89.1875C147.05 89.1891 146.775 89.1762 146.501 89.1487C146.222 89.1233 145.947 89.0697 145.681 88.9887L158.868 73.596C158.22 72.7017 157.46 71.8876 156.608 71.172C154.918 69.7377 152.897 68.7169 150.717 68.1952C149.616 67.9289 148.485 67.7954 147.351 67.7977C145.478 67.7853 143.62 68.1312 141.885 68.8158C140.188 69.4824 138.648 70.4758 137.359 71.7357C136.07 72.9957 135.057 74.496 134.383 76.1461C133.629 77.9857 133.254 79.9505 133.278 81.9299C133.255 83.8714 133.631 85.7979 134.383 87.5973C135.081 89.2588 136.109 90.771 137.409 92.0479C138.71 93.3161 140.259 94.3201 141.965 95.001C143.672 95.682 145.501 96.0262 147.346 96.0136C148.476 96.0147 149.603 95.8845 150.702 95.6258C151.782 95.3712 152.827 94.9903 153.812 94.4913C154.799 93.9918 155.723 93.3816 156.563 92.6733C156.853 92.4309 159.288 89.7644 162.389 86.2932C164.84 83.5589 167.71 80.3446 170.276 77.4551L171.146 76.4855C171.587 76.0954 172.095 75.7821 172.646 75.5595C173.306 75.2906 174.016 75.1537 174.732 75.1571C175.43 75.1538 176.121 75.2908 176.762 75.5595C178.026 76.0819 179.031 77.0609 179.563 78.289C179.839 78.9138 179.981 79.5871 179.978 80.267V95.524H186.979V80.2476C186.99 78.65 186.662 77.0674 186.014 75.5983C185.4 74.1786 184.512 72.8853 183.398 71.7877ZM141.145 85.4739C140.998 85.2225 140.885 84.9536 140.81 84.6739C140.725 84.3782 140.65 84.0631 140.59 83.7431C140.529 83.4231 140.489 83.0983 140.459 82.7735C140.429 82.4487 140.424 82.1723 140.424 81.9251C140.408 80.8991 140.592 79.8795 140.965 78.9192C141.297 78.0729 141.798 77.2986 142.44 76.6406C143.065 76.0111 143.82 75.5156 144.655 75.1862C145.515 74.8438 146.436 74.6707 147.366 74.6771C147.7 74.6755 148.034 74.6917 148.366 74.7256C148.696 74.7623 149.02 74.8372 149.331 74.9486L141.145 85.4739Z" fill="white"/>
<path d="M209.008 68.8062V83.5638C209.01 84.2776 208.87 84.9852 208.598 85.6485C208.331 86.3082 207.949 86.9183 207.468 87.452C206.995 87.9796 206.423 88.4155 205.783 88.7367C205.152 89.058 204.45 89.2245 203.737 89.2215C203.026 89.2365 202.32 89.1163 201.657 88.8676C201.02 88.6239 200.446 88.2502 199.971 87.7719C199.472 87.2477 199.088 86.6309 198.841 85.9587C198.543 85.184 198.399 84.3615 198.416 83.5347V68.8062H191.415V83.5638C191.388 85.332 191.714 87.0885 192.375 88.7367C192.958 90.1834 193.842 91.498 194.973 92.5983C196.103 93.6986 197.456 94.5609 198.946 95.1314C200.467 95.7186 202.09 96.0149 203.727 96.004C204.495 96.0039 205.26 95.9078 206.003 95.718C206.751 95.5247 207.479 95.265 208.178 94.9423C208.878 94.6185 209.548 94.2356 210.179 93.7981C210.811 93.3637 211.415 92.8926 211.989 92.3873L214.304 95.5047H216V68.8062H209.008Z" fill="white"/>
<path d="M118.596 22.0068H92.411C92.1923 22.0068 91.9757 22.0486 91.7737 22.1297C91.5716 22.2109 91.388 22.3298 91.2334 22.4797C91.0787 22.6296 90.9561 22.8076 90.8724 23.0034C90.7887 23.1993 90.7456 23.4092 90.7456 23.6213C90.7456 23.8333 90.7887 24.0432 90.8724 24.2391C90.9561 24.4349 91.0787 24.6129 91.2334 24.7628C91.388 24.9127 91.5716 25.0317 91.7737 25.1128C91.9757 25.1939 92.1923 25.2357 92.411 25.2357H118.596C118.815 25.2357 119.032 25.1939 119.234 25.1128C119.436 25.0317 119.619 24.9127 119.774 24.7628C119.929 24.6129 120.051 24.4349 120.135 24.2391C120.219 24.0432 120.262 23.8333 120.262 23.6213C120.262 23.4092 120.219 23.1993 120.135 23.0034C120.051 22.8076 119.929 22.6296 119.774 22.4797C119.619 22.3298 119.436 22.2109 119.234 22.1297C119.032 22.0486 118.815 22.0068 118.596 22.0068Z" fill="white"/>
<path d="M92.411 17.3914H118.596C119.038 17.3914 119.462 17.2213 119.774 16.9186C120.086 16.6158 120.262 16.2052 120.262 15.777C120.262 15.3488 120.086 14.9382 119.774 14.6354C119.462 14.3327 119.038 14.1626 118.596 14.1626H92.411C91.9693 14.1626 91.5457 14.3327 91.2334 14.6354C90.9211 14.9382 90.7456 15.3488 90.7456 15.777C90.7456 16.2052 90.9211 16.6158 91.2334 16.9186C91.5457 17.2213 91.9693 17.3914 92.411 17.3914Z" fill="white"/>
<path d="M118.596 29.856H92.411C92.1923 29.856 91.9757 29.8977 91.7737 29.9788C91.5716 30.06 91.388 30.1789 91.2334 30.3288C91.0787 30.4787 90.9561 30.6567 90.8724 30.8526C90.7887 31.0484 90.7456 31.2584 90.7456 31.4704C90.7456 31.6824 90.7887 31.8923 90.8724 32.0882C90.9561 32.2841 91.0787 32.462 91.2334 32.6119C91.388 32.7619 91.5716 32.8808 91.7737 32.9619C91.9757 33.043 92.1923 33.0848 92.411 33.0848H118.596C118.815 33.0848 119.032 33.043 119.234 32.9619C119.436 32.8808 119.619 32.7619 119.774 32.6119C119.929 32.462 120.051 32.2841 120.135 32.0882C120.219 31.8923 120.262 31.6824 120.262 31.4704C120.262 31.2584 120.219 31.0484 120.135 30.8526C120.051 30.6567 119.929 30.4787 119.774 30.3288C119.619 30.1789 119.436 30.06 119.234 29.9788C119.032 29.8977 118.815 29.856 118.596 29.856Z" fill="white"/>
<path d="M128.884 24.838C127.759 24.838 126.748 25.701 125.838 26.9227C124.84 28.3497 124.002 29.8758 123.338 31.4751C122.796 32.5232 122.457 33.6586 122.337 34.8251C122.289 35.6519 122.542 36.4687 123.053 37.1328C122.027 38.4218 120.852 39.593 119.552 40.6235C119.347 40.7835 118.867 41.1616 118.107 41.6707C117.104 42.3317 116.046 42.9121 114.946 43.4063C113.367 44.1138 111.704 44.6316 109.995 44.948C109.605 45.0191 109.205 45.0821 108.795 45.137C107.6 45.2913 106.394 45.3529 105.189 45.3213L103.093 47.6484L101.768 49.1028V44.9383C100.892 44.7764 100.027 44.5626 99.1776 44.2983C98.1749 43.9867 97.1971 43.6043 96.252 43.1542C92.2668 41.2614 88.9753 38.2306 86.8205 34.4697C84.6657 30.7088 83.751 26.3983 84.1995 22.1183C84.5026 19.1624 85.4523 16.3031 86.9851 13.731C88.4273 11.2998 90.3542 9.17109 92.6536 7.46895C94.9529 5.76681 97.5786 4.52527 100.378 3.81666C101.641 3.50005 102.932 3.29558 104.234 3.2058C104.874 3.15732 105.489 3.14278 106.119 3.14762C106.749 3.15247 107.334 3.18641 107.919 3.24459C111.86 3.60715 115.622 5.01071 118.797 7.30245C119.785 8.00949 120.707 8.79956 121.552 9.66348C122.202 10.318 122.597 10.7979 122.773 11.0064C123.313 11.6665 123.814 12.3561 124.273 13.0717C123.782 13.74 123.471 14.5166 123.368 15.3309C123.255 16.1493 123.353 16.9822 123.653 17.755C124.45 19.8285 124.859 22.0238 124.858 24.2369H126.048C126.053 21.9004 125.626 19.5821 124.788 17.3914C124.508 16.6747 124.471 15.8899 124.683 15.1515C124.773 14.7937 124.936 14.4568 125.162 14.1605C125.388 13.8642 125.672 13.6144 125.998 13.4256C126.344 13.2453 126.731 13.1509 127.123 13.1509C127.516 13.1509 127.903 13.2453 128.249 13.4256C129.106 13.8522 129.766 14.5755 130.099 15.4521C131.184 18.2701 131.739 21.2534 131.739 24.2611H132.93C132.934 21.1156 132.353 17.9952 131.214 15.0497C130.81 13.9743 130.071 13.0474 129.099 12.3978C128.323 11.8592 127.363 11.6301 126.418 11.7579C125.907 10.9666 125.348 10.2057 124.743 9.47925C122.489 6.76252 119.64 4.56486 116.404 3.04489C113.167 1.52492 109.622 0.720563 106.026 0.689877C102.43 0.659191 98.871 1.40294 95.6072 2.86745C92.3433 4.33195 89.4555 6.48067 87.1524 9.15851C84.8492 11.8363 83.188 14.9765 82.2888 18.3523C81.3895 21.7281 81.2746 25.2554 81.9524 28.6794C82.6302 32.1035 84.0837 35.339 86.208 38.1524C88.3323 40.9657 91.0745 43.2868 94.2366 44.948C95.7984 45.7714 97.4508 46.4219 99.1626 46.8872V55.8223L106.384 47.7841C106.944 47.7841 107.504 47.7453 108.064 47.692C113.959 47.1668 119.453 44.572 123.513 40.3956C124.053 39.8381 124.568 39.2563 125.048 38.6551C125.49 38.8201 125.967 38.8794 126.438 38.8279C126.909 38.7764 127.36 38.6157 127.754 38.3594C128.754 37.7728 129.874 36.5898 130.779 34.5536C131.311 33.369 131.649 32.1111 131.779 30.8254C131.886 29.7662 131.805 28.6972 131.539 27.6645C131.024 25.8707 129.994 24.8574 128.884 24.838Z" fill="white"/>
<path d="M130.449 24.2516C130.455 21.5158 129.973 18.7996 129.024 16.2231L127.904 16.611C128.802 19.0641 129.261 21.6484 129.259 24.2516H130.449Z" fill="white"/>
<path d="M125.838 17.3234C126.654 19.5476 127.07 21.8908 127.069 24.2513H128.264C128.265 21.7582 127.823 19.2836 126.959 16.9355L125.838 17.3234Z" fill="white"/>
</svg>
